<?xml version="1.0" standalone="no"?>
<!DOCTYPE svg PUBLIC "-//W3C//DTD SVG 20010904//EN"
 "http://www.w3.org/TR/2001/REC-SVG-20010904/DTD/svg10.dtd">
<svg version="1.0" xmlns="http://www.w3.org/2000/svg"
 width="1296.000000pt" height="1296.000000pt" viewBox="0 0 1296.000000 1296.000000"
 preserveAspectRatio="xMidYMid meet">
<metadata>
Created by potrace 1.14, written by Peter Selinger 2001-2017
</metadata>
<g transform="translate(0.000000,1296.000000) scale(0.100000,-0.100000)"
fill="#000000" stroke="none">
<path d="M3567 9884 c-1 -1 -52 -5 -112 -8 -61 -3 -135 -10 -165 -15 -30 -6
-77 -13 -105 -16 -27 -3 -57 -8 -65 -10 -8 -3 -29 -7 -45 -9 -17 -2 -50 -9
-75 -16 -25 -7 -54 -14 -65 -16 -27 -3 -133 -32 -143 -38 -5 -3 -19 -7 -33 -9
-54 -10 -212 -68 -334 -122 -27 -12 -79 -35 -115 -51 -36 -16 -91 -43 -122
-61 -31 -18 -59 -33 -63 -33 -3 0 -31 -16 -61 -35 -30 -19 -56 -35 -58 -35 -5
0 -229 -151 -236 -159 -3 -3 -23 -19 -45 -36 -22 -16 -44 -33 -50 -37 -5 -5
-21 -17 -35 -28 -61 -49 -82 -67 -117 -102 -35 -37 -61 -51 -47 -25 4 6 -7 -1
-24 -17 -17 -16 -29 -34 -25 -39 3 -6 1 -7 -6 -3 -23 14 -276 -252 -435 -458
-78 -100 -223 -323 -295 -454 -112 -202 -241 -514 -297 -717 -92 -336 -124
-557 -124 -865 0 -223 4 -269 41 -505 20 -125 79 -358 129 -504 82 -243 241
-584 331 -713 11 -14 19 -28 19 -31 0 -3 24 -41 53 -84 49 -72 75 -108 182
-248 150 -197 395 -439 614 -605 40 -30 85 -64 99 -76 41 -31 240 -157 302
-191 174 -95 239 -127 367 -182 141 -60 259 -105 318 -121 17 -5 57 -16 90
-25 33 -9 87 -23 120 -31 33 -8 85 -21 115 -29 54 -13 99 -21 296 -50 138 -20
530 -20 668 0 184 27 240 37 366 67 516 121 989 354 1410 693 150 121 326 289
427 407 41 48 78 87 82 85 5 -1 33 26 64 60 31 35 59 58 62 52 4 -5 15 2 27
16 11 15 26 24 33 21 7 -2 23 3 36 12 16 11 24 12 27 4 2 -8 8 -8 23 1 17 10
22 9 30 -6 7 -11 17 -16 29 -12 13 4 27 -6 50 -35 26 -33 35 -38 47 -29 11 10
17 7 31 -12 93 -133 454 -470 649 -606 190 -132 298 -196 493 -289 215 -104
328 -148 530 -207 175 -52 299 -77 542 -112 243 -34 658 -12 918 50 30 8 78
19 105 26 91 21 291 81 330 98 11 5 68 28 126 50 174 69 425 200 601 315 564
370 1026 930 1277 1551 65 159 77 190 90 235 6 19 20 62 30 95 16 50 36 125
56 215 10 44 45 236 55 305 7 44 15 177 17 295 5 255 -10 407 -73 705 -3 11
-18 70 -35 130 -16 61 -33 124 -38 140 -4 17 -12 29 -18 28 -6 -1 -16 19 -23
45 -18 72 -38 134 -93 287 -204 577 -585 1100 -1068 1467 -460 350 -948 551
-1554 640 -142 21 -667 17 -820 -5 -483 -72 -925 -235 -1309 -484 -215 -139
-359 -258 -548 -449 -145 -148 -199 -211 -326 -382 -51 -68 -92 -117 -92 -109
0 8 -7 17 -15 21 -8 3 -15 1 -15 -4 0 -15 -21 -12 -42 7 -13 12 -18 13 -18 3
0 -8 -12 -2 -30 15 -16 16 -33 26 -36 22 -3 -3 -33 24 -65 61 -33 37 -63 67
-68 67 -4 0 -59 54 -121 120 -113 121 -153 155 -111 96 13 -18 21 -34 18 -37
-2 -2 -12 8 -22 23 -11 15 -54 61 -97 102 -43 40 -78 78 -78 84 0 6 36 -24 80
-68 44 -44 80 -77 80 -73 0 8 -160 163 -168 163 -14 1 -58 29 -77 49 -12 12
-40 37 -64 56 -23 19 -48 40 -54 45 -22 19 -181 132 -257 182 -140 92 -291
172 -500 266 -51 23 -194 75 -270 99 -36 11 -82 26 -102 34 -21 8 -38 12 -38
9 0 -2 -19 3 -42 11 -24 8 -59 17 -78 20 -40 5 -75 12 -75 14 0 1 -9 3 -20 4
-11 2 -33 6 -50 10 -16 3 -48 9 -70 11 -22 3 -56 7 -75 10 -91 14 -137 17
-300 21 -96 2 -187 6 -203 7 -15 2 -28 2 -30 1z m-707 -460 c56 -34 76 -108
44 -163 -22 -37 -32 -42 -176 -97 -155 -59 -318 -140 -428 -212 -157 -104
-351 -315 -495 -539 -22 -34 -51 -68 -66 -77 -78 -46 -179 14 -179 107 0 27
17 60 68 139 273 411 534 623 980 794 64 25 126 49 137 54 32 14 85 11 115 -6z
m7503 -24 c521 -179 783 -365 1084 -768 91 -121 117 -172 108 -211 -10 -44
-41 -79 -84 -92 -65 -19 -97 2 -189 132 -271 379 -495 541 -992 719 -127 45
-145 57 -161 111 -10 31 -9 43 7 76 18 35 69 73 100 73 7 0 63 -18 127 -40z
m-9013 -523 c0 -2 -17 -19 -37 -38 -20 -18 -31 -25 -23 -14 23 31 60 63 60 52z
m-90 -102 c-7 -9 -15 -13 -19 -10 -3 3 1 10 9 15 21 14 24 12 10 -5z m4870
-17 c0 -6 -6 -5 -15 2 -8 7 -15 14 -15 16 0 2 7 1 15 -2 8 -4 15 -11 15 -16z
m50 -54 c0 -2 -9 0 -20 6 -11 6 -20 13 -20 16 0 2 9 0 20 -6 11 -6 20 -13 20
-16z m-5040 -78 c0 -3 -4 -8 -10 -11 -5 -3 -10 -1 -10 4 0 6 5 11 10 11 6 0
10 -2 10 -4z m-39 -49 c-10 -9 -11 -8 -5 6 3 10 9 15 12 12 3 -3 0 -11 -7 -18z
m411 -413 c125 -88 113 -269 -22 -342 -95 -50 -215 -11 -268 88 -50 95 -11
215 88 268 63 33 143 28 202 -14z m10317 20 c114 -33 187 -156 162 -270 -39
-171 -236 -245 -373 -140 -150 114 -108 355 72 411 59 18 76 18 139 -1z m597
-829 c9 -39 0 -30 -15 15 -6 19 -7 30 -2 25 5 -6 13 -23 17 -40z m24 -129 c0
-26 -6 -18 -14 19 -5 22 -4 26 4 15 5 -8 10 -24 10 -34z m17 -148 c-3 -8 -6
-5 -6 6 -1 11 2 17 5 13 3 -3 4 -12 1 -19z"/>
</g>
</svg>
